# xmcd CD database file
#
# Track frame offsets:
#	150
#	17689
#	37714
#	60295
#	88313
#	109257
#	128837
#	151091
#	170195
#	191379
#	210686
#	235258
#	253368
#	275936
#
# Disc length: 3919 seconds
#
# Revision: 0
# Processed by: cddbd v1.5.1PL0 Copyright (c) Steve Scherf et al.
# Submitted via: CDex 1.51
#
DISCID=c30f4d0e
DTITLE=JK - Helena
DYEAR=2003
DGENRE=Rhythmic Soul
TTITLE0=Nkala Kupembela (feat. Exile)
TTITLE1=Helena
TTITLE2=Dzokera (Dzidwa Kugara)
TTITLE3=Elyoni Elyoni
TTITLE4=Ubusuma Bwenu (feat. Joe Chibangu)
TTITLE5=Munjeleleko
TTITLE6=Apongozi (feat. MC Wabwino)
TTITLE7=Abantu Bambi
TTITLE8=Sembe Una Niuza
TTITLE9=Nali Kuyaza
TTITLE10=Na Mwansa
TTITLE11=We Mwana Wane
TTITLE12=Lelo Ni Friday (feat. Nasty D)
TTITLE13=Umuchanga
EXTD=YEAR: 2003
EXTT0=
EXTT1=
EXTT2=
EXTT3=
EXTT4=
EXTT5=
EXTT6=
EXTT7=
EXTT8=
EXTT9=
EXTT10=
EXTT11=
EXTT12=
EXTT13=
PLAYORDER=
